<svg width="68" height="45" viewBox="0 0 68 45" fill="none" xmlns="http://www.w3.org/2000/svg">
<g clip-path="url(#clip0_3:315)">
<path d="M4.14209 0.525879C2.33517 0.525879 0.846191 2.01478 0.846191 3.8217V34.5834C0.846191 36.3903 2.33517 37.8793 4.14209 37.8793H19.5423C19.5169 38.0882 19.4754 38.3266 19.4028 38.6047C19.1456 39.588 18.5162 40.9054 16.9201 42.2718H15.1241C13.6589 42.2718 13.6589 44.4691 15.1241 44.4691H28.312C29.7772 44.4691 29.7772 42.2718 28.312 42.2718H19.9585C20.8153 41.1626 21.2894 40.0779 21.5292 39.1603C21.6546 38.6804 21.7031 38.2603 21.7288 37.8793H28.312C29.7977 37.9001 29.7977 35.6612 28.312 35.6822H4.14209C3.51446 35.6822 3.04346 35.211 3.04346 34.5834V29.0903H28.312C29.7977 29.111 29.7977 26.8721 28.312 26.8931H3.04346V3.8217C3.04346 3.19404 3.51446 2.72318 4.14209 2.72318H45.8901C46.5178 2.72318 46.9888 3.19404 46.9888 3.8217C46.9684 5.30673 49.2064 5.30673 49.186 3.8217C49.186 2.01478 47.6971 0.525879 45.8901 0.525879H4.14209ZM34.9038 7.11334C33.0969 7.11334 31.6036 8.60887 31.6036 10.4158V41.1774C31.6036 42.9843 33.0969 44.4691 34.9038 44.4691H48.0831C49.5483 44.4691 49.5483 42.2718 48.0831 42.2718H34.9038C34.2762 42.2718 33.8009 41.8051 33.8009 41.1774V35.6863H48.0831C49.5483 35.6863 49.5483 33.489 48.0831 33.489H33.8009V13.7073H55.78V17.0096C55.78 18.4747 57.9772 18.4747 57.9772 17.0096V10.4158C57.9772 8.60883 56.484 7.11334 54.6771 7.11334H34.9038ZM6.32434 9.29556C5.71416 9.30387 5.22719 9.80561 5.23858 10.4158V12.6129C5.23858 14.0782 7.43585 14.0782 7.43585 12.6129V10.4158C7.44739 9.7961 6.94405 9.28846 6.32434 9.29556V9.29556ZM34.9038 9.31216H54.6771C55.3047 9.31216 55.78 9.78746 55.78 10.4151V11.5095H33.8009V10.4151C33.8009 9.78741 34.2762 9.31216 34.9038 9.31216ZM6.32434 15.889C5.71416 15.8973 5.22719 16.3989 5.23858 17.009V23.5923C5.23858 25.0575 7.43585 25.0575 7.43585 23.5923V17.009C7.44739 16.3894 6.94405 15.8819 6.32434 15.889V15.889ZM37.0861 15.889C36.4759 15.8973 35.9889 16.399 36.0003 17.009V19.2063C36.0003 20.6715 38.1976 20.6715 38.1976 19.2063V17.009C38.2092 16.3894 37.7058 15.8819 37.0861 15.889ZM54.6771 20.3007C52.8701 20.3007 51.3833 21.7854 51.3833 23.5923V41.1768C51.3833 42.9837 52.8701 44.4684 54.6771 44.4684H63.4683C65.2752 44.4684 66.7599 42.9837 66.7599 41.1768V23.5923C66.7599 21.7854 65.2752 20.3007 63.4683 20.3007H54.6771ZM37.0861 22.4829C36.4791 22.4912 35.9934 22.9854 36.0003 23.5923V30.1863C36.0003 31.6514 38.1976 31.6514 38.1976 30.1863V23.5923C38.2042 22.9758 37.7025 22.4759 37.0861 22.4829ZM54.6771 22.4995H63.4683C64.0958 22.4995 64.5626 22.9662 64.5626 23.5938V24.6979H53.5827V23.5928C53.5827 22.9652 54.0493 22.4985 54.6771 22.4985V22.4995ZM53.5827 26.8963H64.5626V37.8762H53.5827V26.8963ZM23.9153 33.4902H26.1147C27.5799 33.4902 27.5799 31.2907 26.1147 31.2907H23.8628C22.345 31.3609 22.4501 33.5605 23.9154 33.4902H23.9153ZM43.6972 37.8762C42.232 37.8762 42.232 40.0733 43.6972 40.0733H45.8944C47.3596 40.0733 47.3596 37.8762 45.8944 37.8762H43.6972ZM53.5827 40.0733H64.5626V41.1785C64.5626 41.8061 64.0958 42.2728 63.4683 42.2728H54.6771C54.0493 42.2728 53.5827 41.8061 53.5827 41.1785V40.0733Z" fill="#3B82F6"/>
</g>
<defs>
<clipPath id="clip0_3:315">
<rect width="67.5" height="45" fill="white" transform="translate(0.0551758)"/>
</clipPath>
</defs>
</svg>
